<mxfile host="Electron" modified="2024-07-02T21:45:26.853Z" agent="Mozilla/5.0 (X11; Linux x86_64) AppleWebKit/537.36 (KHTML, like Gecko) draw.io/24.5.3 Chrome/124.0.6367.207 Electron/30.0.6 Safari/537.36" etag="NV2pLpJnYP-mXo3mLCHt" border="50" scale="3" compressed="false" locked="false" version="24.5.3" type="device">
  <diagram name="Blank" id="YmL12bMKpDGza6XwsDPr">
    <mxGraphModel dx="688" dy="598" grid="0" gridSize="10" guides="1" tooltips="1" connect="1" arrows="1" fold="1" page="1" pageScale="1" pageWidth="827" pageHeight="1169" background="none" math="1" shadow="0">
      <root>
        <mxCell id="X5NqExCQtvZxIxQ7pmgY-0" />
        <mxCell id="1" parent="X5NqExCQtvZxIxQ7pmgY-0" />
        <mxCell id="hY4IK4yrzYgxUvn6RVam-4" value="" style="group" vertex="1" connectable="0" parent="1">
          <mxGeometry x="229" y="141" width="550" height="60" as="geometry" />
        </mxCell>
        <mxCell id="hY4IK4yrzYgxUvn6RVam-2" value="Suppression&#xa;de colonnes&#xa;inutiles" style="shape=step;perimeter=stepPerimeter;strokeColor=#56517e;fontFamily=Helvetica;fontSize=10;fillColor=#d0cee2;fixedSize=1;size=17;fontStyle=1;strokeWidth=2;spacingTop=0;points=[];container=0;" vertex="1" parent="hY4IK4yrzYgxUvn6RVam-4">
          <mxGeometry x="360" width="100" height="60" as="geometry" />
        </mxCell>
        <mxCell id="hY4IK4yrzYgxUvn6RVam-3" value="Pivot de&#xa;l&#39;année" style="shape=step;perimeter=stepPerimeter;strokeColor=#23445d;fontFamily=Helvetica;fontSize=10;fillColor=#bac8d3;fixedSize=1;size=17;fontStyle=1;strokeWidth=2;spacingTop=0;points=[];container=0;" vertex="1" parent="hY4IK4yrzYgxUvn6RVam-4">
          <mxGeometry x="450" width="100" height="60" as="geometry" />
        </mxCell>
        <mxCell id="NjAqU9Y5rHBkyYTPuW-a-2" value="Découpage du&#xa;en chunck&#xa;de 100 000" style="shape=step;perimeter=stepPerimeter;strokeColor=#6C8EBF;fontFamily=Helvetica;fontSize=10;fontColor=#6C8EBF;fillColor=#dae8fc;fixedSize=1;size=17;fontStyle=1;strokeWidth=2;spacingTop=0;points=[];container=0;" parent="hY4IK4yrzYgxUvn6RVam-4" vertex="1">
          <mxGeometry width="100" height="60" as="geometry" />
        </mxCell>
        <mxCell id="NjAqU9Y5rHBkyYTPuW-a-3" value="Filtre&#xa;public de 2020&#xa;à 2022" style="shape=step;perimeter=stepPerimeter;strokeColor=#82B366;fontFamily=Helvetica;fontSize=10;fontColor=#82B366;fillColor=#d5e8d4;fixedSize=1;size=17;fontStyle=1;strokeWidth=2;spacingTop=0;points=[];container=0;" parent="hY4IK4yrzYgxUvn6RVam-4" vertex="1">
          <mxGeometry x="90" width="100" height="60" as="geometry" />
        </mxCell>
        <mxCell id="NjAqU9Y5rHBkyYTPuW-a-4" value="Transformation&#xa;de la date en&#xa;année (UInt16)" style="shape=step;perimeter=stepPerimeter;strokeColor=#D6B656;fontFamily=Helvetica;fontSize=11;fontColor=#D6B656;fillColor=#fff2cc;fixedSize=1;size=17;fontStyle=1;strokeWidth=2;spacingTop=0;points=[];container=0;" parent="hY4IK4yrzYgxUvn6RVam-4" vertex="1">
          <mxGeometry x="180" width="100" height="60" as="geometry" />
        </mxCell>
        <mxCell id="NjAqU9Y5rHBkyYTPuW-a-5" value="Liasses fiscales&#xa;en&#xa;dictionnaire" style="shape=step;perimeter=stepPerimeter;strokeColor=#B85450;fontFamily=Helvetica;fontSize=10;fontColor=#B85450;fillColor=#f8cecc;fixedSize=1;size=17;fontStyle=1;strokeWidth=2;spacingTop=0;points=[];container=0;" parent="hY4IK4yrzYgxUvn6RVam-4" vertex="1">
          <mxGeometry x="270" width="100" height="60" as="geometry" />
        </mxCell>
      </root>
    </mxGraphModel>
  </diagram>
</mxfile>
